<?xml version="1.0" standalone="no"?>
<!DOCTYPE svg PUBLIC "-//W3C//DTD SVG 20010904//EN"
 "http://www.w3.org/TR/2001/REC-SVG-20010904/DTD/svg10.dtd">
<svg version="1.0" xmlns="http://www.w3.org/2000/svg"
 width="6638.000000pt" height="7078.000000pt" viewBox="0 0 6638.000000 7078.000000"
 preserveAspectRatio="xMidYMid meet">

<g transform="translate(0.000000,7078.000000) scale(0.100000,-0.100000)"
fill="#000000" stroke="none">
<path d="M17565 69869 c-126 -17 -359 -68 -516 -113 -1208 -348 -2413 -1122
-3320 -2132 -1086 -1209 -1724 -2614 -1919 -4224 -43 -363 -54 -558 -54 -1005
-1 -435 7 -590 45 -965 135 -1344 584 -2769 1270 -4035 l92 -170 -18 -30 c-59
-99 -79 -144 -121 -275 -71 -222 -128 -322 -266 -466 -97 -101 -195 -170 -336
-236 -182 -86 -192 -95 -550 -513 -559 -650 -1012 -1165 -1392 -1578 -80 -87
-163 -187 -186 -222 -52 -81 -85 -181 -92 -276 l-4 -77 -62 -7 c-127 -14 -254
-72 -368 -168 -75 -63 -649 -658 -835 -864 -91 -102 -186 -215 -210 -252 -55
-84 -86 -183 -107 -341 -9 -69 -22 -150 -28 -180 -31 -158 -194 -287 -530
-420 -115 -45 -221 -112 -278 -176 -19 -22 -91 -112 -159 -201 -69 -90 -125
-162 -126 -160 -1 1 4 83 11 182 7 99 16 320 20 490 l6 310 -28 -40 c-118
-168 -393 -618 -553 -905 -118 -212 -377 -734 -476 -960 -167 -380 -332 -815
-455 -1200 -60 -188 -77 -231 -141 -340 -161 -279 -261 -531 -300 -761 -27
-157 -23 -381 9 -529 l21 -95 -29 -195 c-15 -107 -29 -179 -29 -160 -9 316
-48 805 -97 1195 -146 1175 -485 2480 -912 3515 l-77 185 -12 -65 c-318 -1704
-272 -3439 135 -5090 21 -82 37 -150 35 -150 -1 0 -35 70 -77 156 -519 1070
-1306 2212 -2205 3199 -266 292 -796 817 -933 924 l-27 21 30 -112 c442 -1662
1235 -3214 2313 -4528 229 -279 426 -498 711 -788 l179 -183 -152 96 c-907
572 -2053 1025 -3122 1234 -203 40 -230 44 -230 38 0 -16 415 -372 615 -528
756 -587 1667 -1064 2554 -1338 90 -28 165 -52 167 -54 2 -1 -12 -47 -31 -102
-19 -55 -39 -138 -45 -185 -20 -165 -23 -444 -7 -656 17 -211 13 -288 -19
-389 -32 -98 -139 -290 -271 -487 -73 -110 -145 -223 -159 -250 -36 -70 -57
-162 -108 -468 -235 -1394 -387 -3216 -390 -4660 l-1 -505 44 -110 c155 -388
176 -466 176 -650 0 -130 -18 -285 -33 -285 -4 0 -50 89 -102 197 -343 712
-828 1451 -1365 2078 -122 144 -299 329 -302 318 -2 -6 12 -91 32 -189 240
-1191 742 -2314 1459 -3263 72 -95 137 -181 143 -190 8 -10 19 -100 28 -226
45 -602 95 -1071 124 -1165 28 -91 82 -175 178 -279 46 -49 83 -96 83 -105 0
-8 -20 -55 -45 -103 -62 -121 -82 -177 -95 -272 -13 -99 -7 -152 61 -501 108
-549 222 -994 376 -1465 139 -424 244 -687 403 -1010 134 -273 154 -342 48
-170 -450 729 -985 1449 -1534 2065 -191 214 -409 435 -412 418 -4 -19 66
-349 128 -603 398 -1643 1135 -3174 2164 -4503 125 -161 152 -204 297 -472
134 -246 453 -842 611 -1140 l40 -75 -208 206 c-730 721 -1523 1330 -2479
1904 -590 355 -1299 712 -1905 962 -189 78 -421 166 -426 161 -4 -5 238 -324
370 -487 295 -367 515 -611 875 -972 373 -373 609 -584 997 -895 954 -763
2031 -1383 3100 -1786 l168 -63 74 -155 c125 -262 263 -563 259 -567 -3 -2
-78 17 -168 41 -473 130 -987 216 -1569 263 -162 13 -330 17 -680 17 -485 0
-710 -11 -1095 -54 -342 -39 -795 -113 -795 -130 0 -11 366 -146 565 -208 644
-203 1216 -315 1915 -374 206 -17 982 -17 1185 0 266 23 606 66 762 98 32 6
33 6 64 -62 73 -163 273 -678 348 -899 46 -132 96 -266 113 -297 17 -32 87
-129 156 -215 313 -392 372 -501 567 -1058 43 -121 109 -301 148 -400 80 -203
267 -585 381 -779 42 -71 76 -130 76 -132 0 -1 -120 56 -267 126 -902 431
-1804 758 -2738 995 -307 78 -634 149 -659 143 -18 -4 283 -291 549 -523 1217
-1066 2661 -1888 4190 -2388 170 -55 523 -159 673 -197 43 -11 44 -13 90 -113
202 -443 435 -859 725 -1292 240 -358 264 -375 768 -529 l115 -35 12 -48 c23
-89 40 -193 32 -193 -5 0 -73 25 -152 56 -486 190 -1058 379 -1544 508 -195
53 -476 117 -482 112 -2 -3 86 -94 195 -203 1127 -1121 2446 -2006 3891 -2609
143 -59 165 -73 350 -207 108 -79 298 -215 422 -303 337 -240 395 -284 377
-284 -37 0 -406 -53 -594 -85 -1660 -286 -3403 -978 -4959 -1970 -206 -132
-484 -322 -484 -332 0 -17 593 21 970 62 1902 209 3748 867 5267 1877 l223
148 208 -156 c114 -86 232 -168 262 -183 30 -14 57 -27 59 -28 2 -2 -99 -108
-225 -235 -405 -412 -725 -807 -1063 -1313 -247 -371 -450 -721 -641 -1110
-93 -190 -220 -472 -220 -490 0 -14 396 272 579 419 418 334 856 762 1182
1156 335 406 624 829 863 1267 l78 143 72 -37 c101 -53 229 -185 417 -433 261
-342 278 -360 512 -514 238 -157 420 -269 497 -305 30 -15 75 -40 100 -57 122
-84 585 -316 701 -352 92 -28 191 -36 279 -23 l74 12 50 -52 c62 -63 161 -129
237 -157 103 -38 389 -88 864 -152 660 -88 793 -156 922 -468 53 -127 96 -194
176 -269 85 -80 164 -117 432 -208 215 -73 237 -79 332 -83 84 -4 120 0 200
19 124 30 336 32 483 6 464 -84 1008 -302 1963 -785 l387 -195 -1 -41 c0 -23
-6 -122 -13 -221 -7 -99 -12 -181 -11 -182 1 -2 95 80 209 182 l207 185 53 0
c82 0 155 -17 221 -51 89 -47 317 -204 489 -338 83 -65 176 -132 207 -150 76
-42 323 -122 494 -160 306 -66 513 -87 1025 -103 414 -12 952 -2 1415 27 127
8 280 17 340 21 l110 6 59 -103 c753 -1320 1155 -2602 1392 -4439 14 -113 35
-228 46 -257 62 -167 237 -268 422 -242 119 16 144 36 491 379 176 174 586
573 910 887 998 965 1481 1464 1964 2028 461 537 912 1143 1245 1672 50 80 64
94 95 103 20 5 39 10 43 10 4 0 130 51 280 114 1236 515 2566 917 4593 1391
220 51 420 102 445 113 62 27 264 145 458 269 171 109 286 170 424 227 193 80
261 94 663 141 662 78 1056 148 1479 264 273 75 354 137 580 436 101 133 162
227 236 360 l55 100 241 122 241 122 64 -20 c94 -30 219 -36 312 -15 74 17
367 128 583 222 407 176 561 302 748 613 61 102 84 131 100 131 12 0 75 -7
141 -15 229 -29 456 -15 613 36 68 22 220 118 342 215 41 33 80 63 87 67 7 5
36 -40 84 -130 467 -889 1179 -1752 2004 -2428 197 -162 655 -496 655 -479 0
17 -134 313 -225 499 -359 729 -810 1412 -1350 2040 -157 183 -513 544 -693
703 l-142 126 29 31 c43 46 147 189 199 276 l47 78 97 1 97 0 163 -121 c457
-340 1028 -686 1603 -969 1395 -687 2896 -1094 4470 -1214 241 -19 545 -31
545 -23 0 10 -278 200 -484 332 -1708 1089 -3651 1819 -5431 2040 -115 14
-214 27 -219 29 -5 1 24 8 65 15 124 22 222 58 300 110 71 48 143 112 450 402
l144 137 187 75 c1262 513 2460 1260 3488 2175 170 152 537 502 621 594 62 68
76 88 58 84 -232 -52 -321 -74 -464 -112 -466 -124 -976 -291 -1539 -505 l-51
-19 36 32 c114 103 708 622 969 848 713 617 744 646 809 792 42 93 106 297
135 433 15 66 28 130 31 141 4 16 19 25 67 39 112 31 459 146 648 215 694 253
1442 611 2070 990 787 475 1511 1030 2173 1667 94 89 123 123 108 123 -35 0
-356 -69 -601 -130 -733 -182 -1518 -448 -2231 -755 l-238 -102 14 31 c236
535 363 972 425 1465 16 129 40 423 40 493 0 10 6 18 13 18 24 0 279 130 365
186 178 116 370 277 438 368 25 33 88 143 139 245 90 179 273 507 349 625 27
42 41 56 54 52 105 -30 1074 -43 1372 -18 699 59 1271 171 1915 374 199 62
565 197 565 208 0 17 -453 91 -795 130 -385 43 -610 54 -1095 54 -577 0 -942
-26 -1403 -100 -87 -14 -162 -24 -167 -22 -5 2 41 73 103 158 107 149 180 276
388 675 l78 150 128 63 c616 306 1378 791 1963 1251 404 317 713 592 1091 970
360 361 581 606 875 972 132 163 374 482 370 487 -10 9 -456 -169 -771 -309
-255 -112 -870 -420 -1130 -565 -762 -425 -1436 -881 -2104 -1423 l-44 -36 7
40 c17 95 79 325 127 472 49 150 52 164 53 268 1 61 -2 124 -6 141 l-7 32 65
16 c187 47 352 185 428 357 24 56 89 284 177 624 l51 200 110 200 c487 889
869 1865 1118 2856 52 210 150 655 150 685 0 56 -560 -566 -956 -1062 -28 -35
-31 -36 -28 -14 14 83 178 1267 203 1461 31 242 61 518 83 769 8 90 13 300 13
555 -1 439 -8 549 -62 932 l-27 192 90 118 c666 873 1138 1852 1409 2923 56
222 128 566 122 583 -7 21 -310 -318 -529 -593 -490 -614 -967 -1392 -1244
-2030 -49 -112 -49 -113 -58 -79 -21 80 -168 562 -196 644 l-30 89 -10 376
c-5 206 -12 445 -16 531 l-7 156 142 265 c148 278 182 356 236 555 61 223 79
352 78 583 0 220 -17 372 -68 595 -39 174 -135 360 -544 1055 -50 85 -118 207
-150 270 -57 112 -59 120 -90 300 -17 102 -50 284 -72 405 l-42 220 27 151
c30 173 32 228 11 357 -8 50 -37 270 -65 487 -115 898 -197 1446 -230 1534
-12 31 -42 87 -66 123 -24 36 -43 67 -42 69 2 1 57 16 123 33 1246 315 2441
961 3439 1860 69 63 126 116 126 118 0 6 -27 2 -230 -38 -1068 -209 -2215
-662 -3121 -1234 l-151 -95 203 208 c1436 1469 2464 3284 2998 5290 l30 112
-27 -21 c-140 -109 -665 -629 -933 -924 -900 -988 -1686 -2129 -2205 -3200
-69 -141 -98 -192 -74 -131 14 38 116 487 154 682 264 1343 293 2746 85 4104
-26 170 -79 474 -84 479 -10 9 -171 -393 -278 -694 -397 -1116 -671 -2373
-766 -3515 -18 -209 -39 -551 -42 -670 0 -19 -16 66 -34 190 -230 1565 -754
3034 -1568 4400 -105 175 -290 468 -351 555 l-28 40 6 -300 c10 -511 58 -1065
142 -1633 14 -96 24 -175 22 -177 -2 -2 -34 53 -72 123 -652 1196 -1528 2537
-2384 3651 l-164 215 18 80 c24 106 24 290 0 409 -77 393 -292 860 -604 1317
-426 623 -1161 1402 -2082 2204 -69 60 -133 117 -143 126 -17 16 -15 24 64
191 313 668 579 1419 743 2099 596 2465 254 4787 -978 6635 -937 1406 -2303
2477 -3796 2975 -403 135 -660 189 -930 197 -153 4 -188 2 -280 -17 -294 -60
-501 -214 -629 -467 -59 -119 -76 -200 -75 -368 1 -132 4 -161 28 -240 70
-235 230 -468 445 -648 49 -41 157 -123 240 -182 227 -161 390 -316 633 -605
543 -645 984 -1570 1132 -2373 106 -575 75 -1071 -99 -1577 -108 -314 -229
-555 -440 -875 -222 -337 -483 -642 -842 -987 l-122 -117 -213 103 c-247 120
-438 208 -1083 503 -818 374 -1263 587 -1634 782 -212 111 -1339 734 -2271
1254 -267 149 -597 333 -735 409 -322 178 -925 481 -1013 508 -225 71 -474 9
-643 -159 -41 -42 -94 -98 -117 -126 l-41 -49 -28 21 c-517 402 -1107 629
-1978 759 -123 19 -223 28 -315 28 -121 1 -146 -2 -240 -29 -85 -23 -124 -29
-205 -29 -105 0 -126 6 -355 90 -72 26 -84 28 -300 32 -238 4 -654 -10 -985
-33 -364 -26 -602 -51 -1305 -135 -1153 -138 -1430 -164 -1785 -164 -391 0
-448 10 -1020 189 -616 192 -886 252 -1185 262 -290 10 -382 -34 -763 -361
-65 -55 -92 -64 -302 -97 -194 -31 -591 -36 -1003 -14 -251 13 -337 14 -387 6
-105 -18 -893 -293 -1023 -357 -86 -42 -171 -122 -331 -312 -57 -67 -107 -121
-110 -119 -164 88 -249 111 -396 105 -96 -5 -128 -11 -253 -52 -193 -62 -510
-154 -957 -276 -1026 -281 -1449 -422 -2132 -711 -184 -78 -228 -102 -330
-174 -211 -151 -448 -252 -720 -309 -83 -18 -190 -52 -335 -107 -302 -116
-591 -209 -828 -268 -347 -86 -520 -115 -1510 -251 -672 -93 -1214 -205 -1375
-284 -38 -19 -124 -79 -190 -133 -122 -99 -395 -364 -478 -463 l-46 -55 -249
250 c-260 261 -410 431 -573 650 -286 384 -474 736 -604 1130 -150 452 -186
877 -115 1374 142 1004 708 2119 1455 2866 115 115 172 161 446 360 371 270
589 610 606 947 22 413 -227 750 -637 864 -83 23 -117 27 -275 29 -99 2 -211
-1 -250 -6z m-866 -1531 c-427 -471 -762 -961 -1039 -1523 -551 -1118 -749
-2227 -569 -3200 254 -1375 1281 -2742 2894 -3853 922 -634 2132 -1209 3258
-1548 67 -20 126 -40 130 -44 5 -4 -44 -74 -109 -156 -532 -675 -1156 -1609
-1598 -2391 -32 -57 -60 -103 -62 -103 -14 0 -571 286 -739 380 -861 480
-1844 1167 -2442 1707 -155 140 -478 465 -624 628 -579 649 -1085 1406 -1419
2122 -336 722 -513 1349 -574 2033 -95 1059 -3 2030 269 2847 77 233 140 385
252 608 445 887 1013 1565 1821 2172 235 177 587 407 631 413 2 0 -34 -42 -80
-92z m33206 -28 c127 -62 218 -115 310 -180 895 -638 1526 -1373 1994 -2325
440 -893 615 -2061 506 -3365 -39 -455 -121 -861 -260 -1284 -325 -986 -903
-1966 -1694 -2871 -150 -172 -631 -649 -800 -794 -619 -531 -1495 -1134 -2301
-1586 -248 -139 -781 -408 -791 -398 -4 4 -66 109 -137 233 -472 821 -1021
1643 -1523 2282 -119 151 -130 168 -105 168 22 0 542 172 741 245 1539 567
2894 1399 3884 2384 952 949 1512 1974 1646 3016 118 919 -105 1992 -630 3030
-271 535 -573 981 -965 1420 -149 166 -158 164 125 25z m-19022 -6251 l-8 -67
-503 -407 c-276 -225 -501 -409 -499 -411 1 -2 216 13 476 32 260 20 474 34
476 32 7 -7 -26 -413 -34 -418 -49 -33 -1091 -814 -1089 -815 2 -2 236 8 522
21 285 14 520 23 521 22 2 -2 -3 -86 -11 -188 -7 -102 -14 -190 -14 -197 0 -6
-268 -195 -595 -419 -328 -223 -595 -407 -593 -408 2 -2 255 3 563 9 308 7
563 9 566 6 3 -3 0 -82 -7 -176 -7 -93 -13 -177 -13 -186 -1 -9 -249 -171
-636 -415 l-636 -399 68 -6 c37 -4 311 -7 607 -8 l539 -1 -7 -127 c-3 -71 -9
-154 -12 -185 l-6 -57 -679 -392 c-373 -216 -676 -395 -674 -398 3 -2 293 -12
646 -22 353 -10 644 -21 647 -24 3 -2 0 -80 -6 -172 -9 -130 -15 -171 -27
-179 -9 -6 -335 -182 -725 -389 -391 -208 -708 -380 -706 -382 2 -3 314 -20
692 -39 378 -19 690 -36 692 -39 5 -4 -17 -327 -22 -332 -1 -2 -351 -174 -776
-383 -426 -209 -770 -380 -764 -380 5 0 329 -22 719 -50 390 -27 723 -50 739
-50 l29 0 -6 -77 c-4 -43 -9 -117 -13 -164 l-6 -87 -807 -362 c-443 -200 -810
-367 -816 -372 -5 -5 -3 -8 5 -8 40 0 1552 -139 1556 -143 4 -4 -16 -299 -21
-305 -1 -1 -385 -162 -854 -356 -468 -194 -853 -355 -856 -358 -3 -2 133 -20
302 -38 170 -18 542 -58 828 -89 l520 -56 -4 -80 c-2 -44 -6 -111 -10 -149
l-6 -69 -897 -341 c-493 -188 -899 -344 -902 -346 -2 -3 385 -54 862 -113 477
-60 869 -112 872 -115 3 -4 1 -67 -5 -141 l-10 -134 -40 -17 c-22 -9 -446
-158 -942 -331 -497 -172 -903 -316 -903 -319 0 -3 408 -63 907 -133 499 -70
909 -130 911 -132 2 -2 0 -66 -4 -142 l-9 -138 -35 -7 c-19 -4 -181 -17 -360
-28 -869 -56 -1881 -154 -2861 -276 l-447 -56 -128 77 c-532 320 -899 663
-1138 1061 -249 417 -403 1036 -456 1839 -13 197 -13 815 0 1041 15 247 46
585 75 800 282 2082 1593 4648 3379 6614 178 196 570 590 746 751 693 632
1360 1088 1995 1365 l120 52 3 -26 c1 -15 -1 -57 -5 -93z m4842 60 c482 -158
1213 -640 1915 -1263 175 -156 623 -598 805 -796 1736 -1885 3054 -4391 3394
-6455 127 -772 156 -1759 71 -2451 -69 -561 -201 -1040 -375 -1360 -155 -283
-403 -570 -700 -807 -125 -100 -404 -289 -542 -367 l-92 -52 -228 31 c-776
105 -1683 203 -2493 271 -357 29 -927 70 -987 70 -62 0 -59 -7 -68 156 l-7
121 74 11 c40 6 465 66 943 133 479 67 873 125 877 128 4 3 -432 159 -968 346
-536 186 -979 342 -984 345 -4 3 -12 60 -16 126 l-7 121 34 5 c19 3 426 54
906 114 480 60 869 112 865 116 -4 3 -423 165 -932 358 -509 194 -928 355
-932 359 -12 11 -25 253 -13 257 12 4 1677 184 1709 184 20 1 19 2 -4 14 -14
7 -420 176 -902 376 l-876 363 -7 86 c-3 47 -7 108 -8 136 l-2 50 795 71 c437
39 808 73 825 75 23 3 -161 90 -823 388 -469 212 -855 388 -858 392 -6 10 -26
271 -20 276 2 2 352 29 777 59 425 30 774 56 776 57 1 2 -361 181 -804 398
l-807 396 -7 34 c-4 19 -10 86 -13 149 l-7 116 678 33 c373 18 704 36 735 39
l58 7 -751 400 c-414 220 -758 405 -767 411 -11 8 -17 47 -25 158 -5 81 -8
149 -6 151 2 2 283 11 624 20 341 9 650 19 687 23 l66 7 -718 415 c-669 386
-719 417 -724 445 -3 17 -8 90 -12 163 l-7 132 579 1 c319 1 609 4 645 8 l66
6 -669 420 c-405 254 -673 428 -678 440 -4 12 -11 89 -15 173 l-8 152 224 -6
c291 -7 983 -21 986 -19 1 0 -277 192 -619 425 -341 234 -628 430 -636 436
-12 9 -18 48 -27 180 -6 93 -10 171 -8 173 2 3 254 -7 561 -21 306 -14 558
-25 559 -24 1 1 -263 199 -588 440 -324 241 -589 439 -590 440 -5 7 -25 353
-20 357 3 3 233 -11 511 -32 278 -21 508 -37 512 -36 6 2 -1038 855 -1074 878
-5 3 -12 34 -15 68 -5 50 -3 61 8 57 8 -3 86 -28 174 -57z m4685 -1210 c1070
-303 2116 -673 3141 -1112 418 -180 1119 -503 1119 -517 0 -11 -110 -38 -116
-29 -14 23 -242 164 -344 213 -250 120 -449 166 -745 173 -226 6 -350 -7 -541
-57 -276 -71 -457 -161 -799 -395 -10 -7 -89 66 -332 305 -496 491 -952 898
-1458 1303 -137 110 -252 202 -255 204 -8 7 35 -4 330 -88z m-14246 -61 c-515
-408 -1017 -854 -1539 -1369 -288 -285 -327 -319 -358 -319 -7 0 -57 29 -109
64 -205 137 -419 233 -645 292 -533 137 -1070 54 -1504 -232 -70 -46 -88 -54
-114 -48 -16 3 -36 9 -43 13 -7 4 76 49 195 106 1274 605 2502 1080 3789 1464
335 100 437 129 448 130 4 1 -50 -45 -120 -101z m17416 -2384 c174 -41 266
-114 530 -424 745 -872 1474 -1946 2105 -3100 256 -468 610 -1187 600 -1219
-8 -27 -145 -155 -244 -230 -107 -80 -299 -182 -444 -235 -97 -36 -286 -91
-292 -84 -1 2 -44 91 -94 198 -184 390 -491 976 -734 1400 -635 1110 -1420
2233 -2221 3175 -74 88 -136 163 -136 167 0 4 30 32 68 61 213 172 384 265
543 296 74 15 248 12 319 -5z m-20411 -59 c91 -19 211 -65 286 -111 76 -45
206 -139 258 -185 l41 -36 -85 -99 c-330 -384 -756 -932 -1114 -1434 -677
-950 -1372 -2129 -1851 -3140 -53 -113 -98 -207 -100 -209 -3 -3 -68 17 -147
42 -163 54 -334 136 -462 222 -90 60 -300 253 -324 298 -12 22 -4 43 99 258
681 1417 1603 2853 2548 3964 257 303 352 380 524 425 90 23 230 26 327 5z
m28541 -4152 c297 -300 448 -457 675 -703 4101 -4438 6526 -10121 6880 -16120
32 -558 39 -824 39 -1520 0 -696 -7 -973 -40 -1530 -355 -6068 -2768 -11741
-6880 -16180 -396 -427 -865 -898 -1309 -1315 -1350 -1267 -2885 -2422 -4490
-3378 -301 -179 -1025 -587 -1042 -587 -2 0 23 35 57 78 277 351 626 833 884
1219 l181 272 80 42 c307 161 786 434 1135 647 1616 988 2993 2181 4236 3672
2022 2426 3482 5440 4380 9045 140 563 261 1143 409 1960 41 231 112 620 156
865 106 590 207 1092 323 1610 52 234 133 596 180 805 441 1977 497 2928 266
4527 -77 532 -178 1062 -399 2093 -66 308 -158 745 -206 970 -520 2481 -986
4187 -1548 5675 -556 1473 -1221 2766 -2002 3890 -757 1091 -1838 2293 -3071
3417 l-111 101 191 180 c105 98 292 282 416 408 l225 230 75 -68 c41 -36 181
-174 310 -305z m-35950 -280 l24 -23 -210 -212 c-1267 -1284 -1865 -2028
-2559 -3183 -827 -1379 -1701 -3035 -2542 -4820 -580 -1231 -969 -2182 -1271
-3106 -642 -1963 -925 -4051 -831 -6144 52 -1165 205 -2253 489 -3480 655
-2825 1135 -4565 1707 -6190 679 -1931 1489 -3609 2367 -4905 416 -613 902
-1233 1650 -2105 133 -154 247 -288 254 -297 11 -13 6 -43 -28 -179 -101 -403
-227 -778 -392 -1167 l-60 -143 -30 28 c-89 84 -523 567 -803 893 -1729 2015
-3149 4299 -4190 6740 -1199 2812 -1882 5761 -2045 8830 -25 482 -32 884 -27
1560 6 686 10 846 42 1365 347 5699 2515 11066 6209 15370 411 479 796 894
1280 1383 l370 372 285 -282 c157 -155 297 -292 311 -305z m489 -440 c2 -1
-85 -94 -194 -205 -1355 -1388 -2508 -3163 -3732 -5748 -628 -1326 -1059
-2310 -1345 -3074 -623 -1663 -995 -3469 -1118 -5426 -24 -390 -31 -598 -37
-1145 -20 -2023 179 -3705 778 -6562 541 -2583 1142 -4550 1934 -6333 661
-1487 1419 -2752 2378 -3970 l130 -164 -17 -220 c-15 -196 -62 -616 -71 -624
-1 -2 -92 102 -202 230 -934 1093 -1500 1866 -2005 2738 -865 1494 -1577 3202
-2233 5355 -295 966 -824 2931 -1060 3930 -325 1375 -516 2510 -604 3580 -41
502 -46 630 -46 1275 0 625 4 746 41 1220 122 1593 470 3174 1027 4672 384
1032 888 2147 1729 3828 580 1161 1010 1960 1568 2915 675 1155 1100 1747
1845 2570 232 256 354 383 793 833 l375 383 31 -28 c17 -15 33 -29 35 -30z
m34091 -249 c624 -562 1341 -1274 1841 -1829 991 -1099 1703 -2144 2368 -3475
324 -649 556 -1184 820 -1893 556 -1489 991 -3105 1511 -5602 45 -214 137
-653 205 -975 234 -1105 321 -1587 395 -2171 147 -1178 114 -2019 -131 -3269
-62 -316 -148 -706 -279 -1270 -227 -975 -275 -1210 -495 -2425 -233 -1285
-335 -1784 -486 -2389 -811 -3242 -2158 -6113 -3932 -8379 l-45 -58 -133 173
c-72 95 -166 224 -206 286 -72 107 -74 113 -59 135 8 12 81 105 162 207 1129
1423 2125 3095 2869 4815 771 1783 1277 3610 1570 5660 255 1789 333 3743 230
5730 -112 2133 -483 4472 -1101 6921 -776 3081 -1797 5318 -3228 7069 -291
356 -561 651 -960 1051 -500 499 -922 878 -1471 1319 -88 71 -164 131 -168
135 -4 4 47 51 115 106 67 54 183 150 257 212 l134 113 31 -29 c17 -16 101
-91 186 -168z m-33547 -203 c71 -57 222 -174 337 -260 l207 -157 -288 -283
c-1681 -1646 -2929 -3344 -3768 -5128 -691 -1470 -1201 -3089 -1545 -4908
-214 -1132 -389 -2481 -476 -3680 -60 -821 -66 -1898 -15 -2715 107 -1709 432
-3560 980 -5568 47 -172 85 -317 85 -323 0 -6 -10 -19 -22 -30 -85 -71 -332
-253 -548 -402 -197 -137 -256 -174 -262 -162 -19 32 -246 993 -363 1530 -528
2429 -772 4186 -836 6020 -13 371 -7 1401 10 1715 65 1182 200 2202 427 3235
272 1235 641 2317 1284 3765 479 1079 1156 2483 1545 3205 809 1499 1615 2673
2514 3660 230 253 583 606 595 597 6 -5 69 -55 139 -111z m32597 -415 c1129
-907 2060 -1815 2761 -2691 1519 -1900 2639 -4676 3388 -8400 171 -849 346
-1857 446 -2565 257 -1828 334 -3725 230 -5645 -145 -2657 -610 -4989 -1430
-7160 -695 -1843 -1675 -3618 -2880 -5220 -199 -264 -374 -485 -385 -485 -21
0 -140 413 -169 586 l-12 72 127 183 c618 889 1273 2064 1777 3189 1236 2760
1935 5761 2112 9070 54 1017 54 2197 0 3280 -163 3242 -706 6004 -1680 8536
-392 1018 -874 2015 -1377 2849 -801 1327 -1654 2332 -2915 3435 -192 168
-523 448 -681 574 -40 33 -69 62 -65 66 4 4 75 54 157 111 82 57 217 154 300
215 83 61 156 109 161 106 6 -3 66 -51 135 -106z m-31549 -356 l59 -41 0 -99
c0 -123 23 -299 53 -418 l24 -90 -194 -194 c-2117 -2108 -3693 -5053 -4563
-8528 -401 -1607 -637 -3299 -700 -5034 -13 -357 -13 -1301 0 -1651 64 -1725
284 -3290 697 -4942 l75 -303 -93 -102 c-146 -163 -428 -456 -458 -477 l-28
-20 -81 307 c-528 1998 -799 3614 -904 5392 -20 342 -17 1628 5 2000 68 1142
196 2265 393 3445 424 2543 1154 4709 2201 6529 738 1284 1722 2523 3137 3954
170 171 311 312 313 312 2 0 31 -18 64 -40z m30905 -561 c756 -630 1392 -1239
1904 -1824 638 -729 1181 -1540 1745 -2605 1429 -2699 2242 -5773 2535 -9585
99 -1291 118 -2683 55 -3950 -224 -4475 -1457 -8544 -3559 -11750 l-131 -200
-3 55 c-4 69 14 380 33 570 43 414 116 846 257 1510 l60 285 123 240 c294 572
648 1338 950 2055 770 1828 1162 3192 1365 4750 18 135 33 245 34 246 265 178
336 242 518 469 70 88 128 162 128 165 0 3 -125 86 -276 184 l-276 179 6 71
c52 598 81 1813 66 2805 -65 4243 -654 7726 -1823 10771 -160 417 -321 788
-516 1185 -495 1009 -1072 1874 -1821 2730 -451 516 -1104 1152 -1629 1588
l-33 28 23 109 c13 61 27 110 30 110 3 0 109 -86 235 -191z m-226 -673 c976
-858 1823 -1831 2424 -2785 885 -1405 1545 -3116 2050 -5311 488 -2123 742
-4178 826 -6680 18 -521 23 -1692 11 -2195 -15 -621 -46 -1255 -61 -1255 -4 0
-104 69 -221 154 l-214 153 4 404 c15 1781 -308 4245 -953 7254 -486 2266
-835 3537 -1310 4768 -599 1551 -1289 2714 -2264 3817 -191 216 -727 751 -967
966 -104 93 -209 187 -233 209 l-44 40 74 50 c229 156 428 353 568 560 l51 76
67 -58 c37 -31 123 -107 192 -167z m-30201 -43 c45 -56 134 -151 198 -213
l118 -111 -72 -67 c-102 -95 -398 -406 -589 -617 -1373 -1525 -2471 -3338
-3187 -5266 -633 -1701 -1017 -3538 -1156 -5519 -46 -648 -61 -1110 -61 -1880
0 -1974 145 -3769 421 -5200 17 -85 32 -162 35 -171 6 -21 -355 -529 -375
-529 -8 0 -19 44 -106 420 -274 1186 -453 2399 -529 3585 -35 545 -41 752 -41
1505 0 883 15 1262 80 2030 288 3381 1285 6617 2823 9164 506 837 1026 1547
1653 2256 284 321 686 738 699 724 4 -5 44 -55 89 -111z m824 -629 c29 -15 53
-27 55 -29 1 -1 -23 -92 -54 -201 -122 -438 -263 -1028 -345 -1444 l-32 -165
-136 -140 c-689 -710 -1327 -1564 -1848 -2475 -643 -1124 -1139 -2381 -1478
-3750 -253 -1024 -404 -1996 -494 -3182 -5 -64 -12 -121 -15 -126 -3 -6 -44
-36 -91 -68 -47 -32 -85 -60 -85 -64 0 -3 39 -19 86 -34 l87 -28 -7 -97 c-28
-442 -32 -1603 -6 -2106 45 -894 116 -1623 230 -2395 22 -151 43 -295 46 -320
5 -42 -1 -58 -109 -265 -170 -326 -472 -862 -529 -938 -12 -17 -19 10 -51 220
-130 835 -222 1722 -272 2613 -185 3378 123 6164 954 8623 712 2104 1836 4038
3263 5614 267 295 747 782 771 783 4 0 31 -12 60 -26z m28362 -303 c697 -609
1333 -1303 1815 -1981 818 -1150 1477 -2640 2016 -4559 376 -1336 896 -3712
1178 -5381 216 -1275 335 -2300 417 -3565 13 -203 25 -1155 14 -1155 -14 0
-516 405 -679 548 l-35 30 -11 204 c-47 909 -141 1730 -410 3603 -308 2141
-603 3707 -980 5200 -505 1999 -930 3067 -1693 4255 -407 634 -964 1334 -1501
1887 l-129 133 -82 328 c-46 180 -104 400 -129 490 -25 89 -46 167 -46 173 0
11 31 -14 255 -210z m424 -1850 c802 -934 1399 -1904 1823 -2965 422 -1056
870 -2709 1228 -4531 290 -1477 632 -3713 774 -5070 51 -479 111 -1232 104
-1291 -3 -25 -15 -16 -173 132 -190 176 -623 608 -758 756 l-88 97 10 153
c116 1685 50 2974 -230 4503 -328 1790 -947 3535 -1780 5018 -89 158 -89 158
-105 269 -90 646 -333 1174 -725 1571 l-116 118 -7 72 c-32 325 -144 1082
-212 1432 -5 27 0 23 58 -39 34 -38 123 -140 197 -225z m-29330 -726 c-5 -33
-20 -151 -33 -261 l-24 -202 -135 -133 c-74 -74 -166 -177 -204 -229 -285
-388 -448 -840 -518 -1440 -22 -183 -31 -650 -16 -875 l11 -180 -71 -165
c-358 -830 -681 -1774 -980 -2865 -104 -377 -230 -876 -280 -1108 l-34 -158
-200 -138 c-234 -162 -789 -531 -798 -531 -11 0 -8 49 18 298 162 1532 493
2946 991 4244 162 421 319 776 541 1218 421 843 887 1567 1458 2265 132 162
276 328 280 323 1 -2 -1 -30 -6 -63z m30255 -3263 c893 -1783 1443 -3785 1621
-5897 61 -723 72 -1666 28 -2479 l-6 -120 -39 45 c-68 77 -350 429 -446 556
l-92 122 0 349 c0 646 -34 1311 -100 1935 -11 104 -20 195 -20 202 0 8 20 15
53 19 95 13 211 47 280 83 243 128 258 443 29 595 -22 15 -542 488 -542 493 0
14 -120 591 -151 725 -195 850 -446 1646 -753 2393 l-85 206 29 143 c41 199
67 380 87 606 10 105 19 192 20 192 2 0 41 -76 87 -168z m-17292 -314 c3 -7
58 -295 124 -640 65 -345 120 -626 121 -625 1 1 49 283 107 627 59 344 108
631 111 638 3 9 36 12 137 10 l132 -3 120 -632 c66 -348 122 -630 124 -628 3
2 52 287 111 632 l106 628 121 3 122 3 4 -28 c31 -200 213 -1253 215 -1247 2
5 52 270 113 589 60 319 115 604 121 633 l11 53 151 -3 151 -3 107 -628 c58
-345 108 -630 110 -632 3 -2 58 281 124 628 l120 632 133 3 c101 2 133 0 137
-10 4 -11 214 -1239 216 -1264 0 -5 54 270 119 611 66 341 122 630 125 643 5
21 10 22 116 22 79 0 111 -4 114 -12 2 -7 85 -961 185 -2121 l181 -2107 -23
-29 c-13 -17 -464 -547 -1003 -1179 l-980 -1150 -3 882 c-1 484 0 887 3 894 3
9 129 12 580 12 316 0 575 3 574 8 0 4 -157 216 -348 472 l-347 465 247 5 247
5 -380 510 -381 510 222 5 222 5 -458 612 c-252 337 -461 612 -464 613 -7 0
-919 -1214 -919 -1224 0 -3 99 -7 219 -8 l219 -3 -379 -508 c-208 -279 -379
-510 -379 -512 0 -3 111 -6 246 -7 l246 -3 -350 -470 -350 -470 579 -3 579 -2
0 -885 0 -884 -44 47 c-23 26 -494 553 -1046 1171 l-1002 1125 6 45 c3 26 87
973 186 2106 100 1133 183 2066 185 2073 3 9 43 12 154 12 110 0 150 -3 153
-12z m-13697 -989 c-207 -552 -407 -1297 -571 -2121 l-37 -186 -116 -99 c-104
-88 -248 -207 -293 -241 -15 -12 -15 -9 -2 45 243 950 608 2103 910 2871 l68
174 49 -147 48 -146 -56 -150z m7309 101 c618 -122 1196 -190 1612 -190 253 0
458 14 889 60 600 65 683 71 954 71 394 0 644 -48 877 -167 163 -83 243 -160
308 -298 53 -109 69 -184 64 -302 -3 -93 -6 -107 -41 -177 -49 -99 -129 -173
-252 -232 -150 -72 -254 -93 -643 -130 -1000 -93 -1888 16 -2672 327 -558 221
-966 523 -1217 898 -78 117 -120 195 -100 187 9 -3 108 -24 221 -47z m16346
-7 c-97 -172 -191 -292 -351 -449 -292 -284 -683 -502 -1224 -682 -372 -123
-773 -202 -1245 -244 -179 -15 -741 -15 -955 1 -274 20 -591 59 -673 81 -204
56 -360 169 -424 306 -85 182 -23 468 137 629 129 131 397 244 680 286 120 17
367 25 575 17 180 -7 351 -22 825 -73 711 -76 1041 -74 1695 10 233 30 606 94
820 139 85 18 159 34 163 35 5 0 -6 -25 -23 -56z m6894 -360 c157 -430 275
-790 381 -1168 61 -214 185 -700 185 -725 0 -8 -70 55 -155 140 l-155 155 -36
115 c-107 348 -338 1004 -424 1205 l-20 47 64 101 c35 56 75 126 90 155 14 28
30 52 34 52 4 0 20 -35 36 -77z m-27048 -140 c-8 -26 -43 -352 -58 -538 -20
-250 -17 -1167 5 -1465 62 -821 177 -1456 327 -1793 l21 -47 58 87 c338 515
1220 1287 1945 1703 99 57 403 210 416 210 3 0 11 -66 18 -147 28 -325 89
-695 163 -998 39 -160 110 -395 119 -395 4 0 43 30 86 66 175 146 465 317 734
432 393 168 867 285 1370 337 214 23 635 31 683 13 l37 -13 -91 -115 c-355
-445 -566 -829 -735 -1333 -172 -518 -268 -1066 -280 -1602 l-5 -240 52 95
c219 402 436 706 728 1025 494 537 1145 973 1891 1268 324 128 596 206 989
283 l184 36 28 -29 c15 -15 426 -476 914 -1023 l887 -995 -58 -2 c-853 -34
-1698 -289 -2380 -719 -56 -35 -104 -64 -107 -64 -7 0 47 250 94 430 80 308
202 677 316 954 24 59 42 110 40 113 -3 2 -72 -21 -154 -53 -601 -231 -1239
-630 -1825 -1141 -156 -136 -476 -450 -625 -615 -441 -487 -857 -1075 -1198
-1693 -92 -168 -311 -612 -386 -783 -63 -145 -51 -154 -137 98 -193 566 -300
1133 -354 1875 -16 223 -16 958 0 1205 30 462 107 1134 158 1374 l6 29 -53
-38 c-489 -351 -947 -897 -1268 -1515 l-68 -131 -37 98 c-223 582 -410 1216
-541 1828 -20 93 -38 171 -39 173 -9 9 -204 -227 -353 -428 -507 -683 -927
-1502 -1213 -2363 -29 -87 -56 -155 -60 -150 -4 4 -37 87 -73 183 -573 1529
-766 3028 -592 4585 68 598 200 1236 391 1888 9 31 21 57 26 57 5 0 7 -8 4
-17z m-2986 -198 c46 -52 68 -85 64 -95 -3 -8 -46 -133 -94 -278 -83 -249 -91
-267 -143 -335 -80 -103 -209 -258 -213 -254 -4 4 85 352 137 532 71 248 160
516 169 513 6 -2 41 -39 80 -83z m29594 -400 c36 -93 64 -171 62 -172 -3 -3
-83 85 -186 206 l-54 63 50 43 c27 24 52 40 56 37 4 -4 36 -83 72 -177z
m-2680 -61 c450 -1909 371 -3700 -242 -5504 -61 -179 -176 -489 -195 -524 -8
-16 -25 24 -91 220 -263 771 -622 1482 -1074 2129 -155 221 -442 585 -463 585
-3 0 -20 -71 -38 -157 -77 -382 -220 -912 -355 -1318 -78 -235 -218 -615 -226
-615 -3 0 -24 37 -47 83 -261 511 -645 1013 -1032 1349 -86 75 -256 207 -296
231 -7 3 0 -65 16 -167 58 -367 101 -752 131 -1171 17 -240 17 -1093 0 -1315
-41 -522 -112 -972 -218 -1380 -43 -164 -162 -538 -199 -624 l-16 -39 -80 179
c-566 1268 -1365 2355 -2313 3148 -550 459 -1164 831 -1713 1037 -74 28 -136
49 -138 47 -2 -2 28 -82 67 -178 89 -222 202 -562 267 -800 55 -203 125 -510
118 -517 -3 -2 -42 20 -88 50 -632 407 -1505 684 -2277 723 -73 4 -132 9 -132
11 0 2 389 461 865 1019 733 859 884 1039 891 1061 1 4 392 -70 547 -103 748
-157 1481 -492 2102 -959 546 -411 1021 -965 1325 -1548 l67 -128 6 68 c7 74
-6 386 -23 548 -71 671 -245 1302 -496 1795 -121 238 -274 473 -476 732 -60
75 -108 139 -108 141 0 3 20 10 44 16 94 23 497 9 806 -30 808 -101 1545 -388
2001 -780 l56 -48 41 132 c107 341 193 794 237 1256 8 85 17 156 19 158 6 7
207 -91 331 -162 632 -358 1426 -1053 1841 -1610 45 -61 98 -137 117 -169 l35
-58 22 48 c149 336 265 963 327 1764 19 247 25 1140 10 1425 -4 82 -6 147 -3
144 3 -3 26 -91 50 -195z m4009 -3026 c4 -40 16 -167 27 -283 36 -390 77
-1140 68 -1275 l-3 -55 -57 95 -56 95 -7 145 c-16 372 -52 785 -100 1145 -14
105 -25 191 -25 192 0 4 50 10 96 12 l51 1 6 -72z m-499 -70 c19 -146 52 -444
60 -543 l5 -70 -84 170 c-94 190 -255 540 -255 555 0 6 52 10 129 10 l128 0
17 -122z m-33443 -283 c162 -49 504 -130 669 -159 l36 -6 -8 -80 c-45 -467
-62 -965 -54 -1535 4 -253 11 -523 15 -600 8 -136 7 -142 -19 -220 -72 -212
-306 -796 -478 -1193 -85 -197 -98 -220 -104 -195 -20 76 -95 789 -128 1208
-39 510 -52 836 -57 1460 -5 560 8 1273 23 1328 7 22 5 22 105 -8z m1273 -245
c55 -6 101 -12 102 -13 8 -9 -309 -1114 -323 -1127 -20 -18 41 1085 62 1148 3
9 15 12 32 8 16 -3 73 -10 127 -16z m30521 -478 c90 -414 148 -859 187 -1422
17 -246 17 -1249 0 -1505 -99 -1495 -346 -2645 -760 -3543 l-71 -152 133 -188
c915 -1294 1526 -2454 1906 -3617 252 -771 354 -1352 495 -2800 94 -969 175
-1575 261 -1944 8 -35 13 -66 10 -68 -5 -6 -76 125 -195 365 -174 348 -303
642 -586 1337 -464 1138 -680 1580 -1053 2150 -534 818 -1199 1560 -2073 2316
-76 66 -140 119 -142 119 -2 0 22 -75 55 -167 395 -1126 687 -2345 822 -3438
85 -686 111 -1163 103 -1919 -6 -519 -10 -634 -42 -1021 -93 -1123 -322 -2328
-715 -3755 -51 -184 -100 -361 -108 -392 -9 -32 -19 -58 -22 -58 -3 0 -160
301 -349 670 -700 1365 -989 1907 -1374 2580 -852 1490 -1597 2482 -2275 3028
-107 86 -214 164 -218 159 -2 -2 3 -57 11 -123 91 -728 115 -1957 60 -3074
-94 -1914 -381 -3785 -815 -5330 -65 -233 -221 -742 -226 -738 -1 2 -21 131
-44 288 -275 1900 -742 3651 -1397 5245 -676 1641 -1552 3091 -2547 4215 -130
147 -525 545 -594 599 l-42 33 36 -78 c402 -878 775 -2118 988 -3285 133 -728
211 -1396 258 -2214 17 -293 17 -1368 0 -1660 -30 -523 -60 -848 -128 -1390
-159 -1271 -349 -2401 -575 -3414 -599 -2684 -1499 -4759 -2780 -6407 -65 -84
-123 -155 -127 -158 -5 -3 -31 79 -57 182 -171 677 -425 1461 -683 2107 -256
642 -399 948 -988 2126 -541 1083 -660 1337 -857 1834 -600 1511 -857 3083
-857 5250 0 1344 75 2333 260 3432 211 1252 588 2587 1004 3557 26 59 45 110
43 113 -8 7 -416 -405 -552 -557 -1420 -1598 -2572 -3755 -3304 -6187 -322
-1070 -585 -2308 -733 -3445 -13 -98 -25 -178 -28 -178 -8 0 -145 444 -220
710 -561 1992 -871 4489 -847 6815 7 678 27 1070 78 1534 11 101 19 187 17
192 -2 5 -53 -28 -115 -74 -559 -420 -1156 -1135 -1820 -2182 -440 -694 -893
-1501 -1520 -2710 -143 -274 -663 -1286 -723 -1404 -23 -46 -34 -61 -40 -50
-4 8 -44 145 -88 304 -479 1731 -699 2948 -784 4335 -17 271 -16 1212 0 1480
93 1501 364 2833 891 4380 44 129 79 236 77 237 -1 2 -58 -45 -127 -104 -1148
-985 -1996 -2027 -2548 -3131 -162 -324 -288 -612 -543 -1242 -303 -747 -400
-976 -560 -1314 -84 -178 -251 -502 -267 -519 -5 -4 9 79 30 185 48 241 100
570 138 883 29 231 42 360 131 1260 112 1134 214 1705 424 2380 371 1196 1004
2416 1941 3740 70 99 129 185 131 190 3 6 -34 92 -82 190 -830 1724 -1138
3635 -949 5890 19 225 73 715 82 735 3 8 18 -82 34 -200 132 -1016 375 -2006
694 -2835 601 -1561 1513 -2750 2527 -3294 l97 -52 17 38 c38 89 135 360 179
503 197 641 316 1377 333 2055 l7 260 29 -50 c17 -27 67 -124 112 -215 273
-548 404 -1041 465 -1745 17 -204 23 -956 10 -1287 -25 -622 -58 -1049 -107
-1368 -75 -485 -168 -837 -459 -1720 -298 -907 -418 -1362 -519 -1980 -111
-677 -168 -1533 -150 -2249 l7 -275 19 35 c10 19 197 346 414 728 709 1246
949 1685 1287 2361 545 1087 837 1807 1071 2635 475 1687 1247 3075 2316 4169
578 590 1175 1032 1825 1347 610 296 1175 479 1665 541 156 19 491 16 615 -6
204 -37 378 -103 523 -200 76 -50 201 -173 266 -260 97 -131 187 -355 228
-571 19 -102 23 -152 22 -335 -1 -253 -12 -311 -94 -477 -138 -279 -427 -454
-980 -592 -91 -22 -304 -70 -475 -106 -844 -178 -1224 -294 -1637 -501 -1367
-685 -2297 -2001 -2637 -3734 -78 -399 -131 -845 -146 -1225 l-6 -150 46 115
c370 938 739 1605 1232 2227 156 197 231 281 427 481 748 761 1597 1209 2499
1317 75 9 142 15 148 13 6 -2 -23 -26 -63 -55 -445 -311 -819 -916 -1058
-1712 -156 -521 -251 -1154 -220 -1475 11 -118 18 -156 29 -156 4 0 22 37 40
83 56 136 173 374 256 517 181 315 362 549 619 805 251 250 486 427 774 584
982 534 2255 606 3321 189 637 -250 1156 -654 1574 -1227 167 -228 370 -595
483 -870 l38 -95 14 45 c19 64 26 312 13 474 -58 696 -279 1468 -577 2009
-195 354 -433 639 -685 820 l-94 68 70 -6 c1163 -109 2267 -796 3133 -1951
440 -587 821 -1296 1117 -2077 27 -71 50 -127 51 -125 5 5 -15 338 -31 522
-96 1077 -384 2028 -848 2800 -527 877 -1314 1562 -2207 1923 -334 134 -661
224 -1340 367 -670 141 -935 225 -1155 369 -205 133 -329 315 -381 556 -24
113 -25 370 -1 526 147 957 901 1314 2120 1003 397 -101 870 -284 1304 -505
1048 -534 2081 -1525 2829 -2714 511 -814 898 -1702 1190 -2730 241 -849 537
-1578 1080 -2660 335 -668 600 -1155 1232 -2260 206 -360 397 -698 425 -750
l51 -95 9 40 c11 51 1 1049 -12 1260 -41 623 -94 1046 -191 1535 -99 500 -202
871 -459 1655 -260 793 -333 1053 -411 1445 -82 412 -109 685 -152 1495 -16
313 -16 1145 0 1355 61 782 192 1285 487 1865 45 88 92 176 103 195 l22 35 0
-115 c0 -269 38 -741 86 -1063 82 -552 218 -1086 392 -1534 l55 -143 86 45
c267 138 581 385 824 649 356 388 646 823 932 1401 489 988 838 2191 1060
3657 21 139 84 608 86 643 1 25 21 -49 54 -203z m2074 -3858 c594 -1437 916
-3069 991 -5019 12 -323 13 -1277 0 -1605 -18 -486 -23 -580 -30 -580 -4 0
-11 24 -14 53 -14 100 -96 494 -146 697 -206 834 -506 1660 -915 2520 -179
377 -418 817 -588 1080 -44 69 -87 136 -95 150 -14 25 -11 32 72 186 386 715
567 1469 622 2598 8 162 0 169 103 -80z m-31708 30 c64 -1129 240 -1851 625
-2558 42 -77 77 -145 77 -151 0 -5 -41 -73 -91 -151 -185 -289 -420 -719 -604
-1106 -482 -1016 -831 -2041 -1012 -2969 -69 -353 -61 -329 -70 -219 -25 341
-33 1135 -16 1585 57 1468 272 2786 739 4535 116 431 334 1210 338 1206 3 -2
9 -80 14 -172z m36088 -2716 c-84 -536 -169 -992 -250 -1332 -219 -920 -539
-1861 -1034 -3036 -192 -456 -198 -470 -203 -466 -2 2 15 105 37 227 131 723
203 1336 231 1968 l10 235 115 340 c118 354 236 738 325 1056 56 202 179 694
201 804 10 52 18 70 34 76 11 5 106 35 210 69 105 33 217 71 250 85 84 34 83
34 74 -26z m-989 -245 c0 -32 -253 -959 -265 -971 -4 -5 -5 -1 -45 288 -27
194 -83 519 -105 601 l-7 26 94 13 c51 6 138 20 193 30 116 21 135 23 135 13z
m-40861 -1742 c137 -61 289 -124 338 -141 104 -37 326 -93 438 -110 44 -7 83
-15 87 -19 4 -3 53 -150 108 -326 329 -1044 897 -2677 1148 -3305 276 -689
595 -1358 952 -1995 l112 -200 18 -155 c42 -358 77 -842 86 -1190 l7 -235
-125 165 c-1470 1949 -2563 4346 -3368 7390 -28 107 -53 203 -56 213 -3 9 -3
17 0 17 3 0 118 -49 255 -109z m2921 -226 c0 -3 -13 -99 -29 -213 -17 -114
-35 -258 -42 -321 -7 -63 -15 -107 -19 -100 -14 25 -211 582 -207 586 3 3 248
47 285 52 6 0 12 -1 12 -4z m-746 -127 c9 -24 52 -146 97 -273 104 -295 301
-822 423 -1133 l96 -244 0 -146 c0 -508 62 -1284 176 -2206 25 -202 43 -370
41 -372 -2 -3 -53 103 -112 233 -315 692 -522 1232 -945 2458 -210 610 -560
1677 -560 1708 0 5 88 6 213 3 166 -5 508 3 549 12 3 1 13 -17 22 -40z m35121
-8804 c135 -96 315 -208 458 -284 l117 -62 -49 -56 c-67 -77 -634 -638 -801
-793 -117 -108 -300 -274 -366 -332 l-22 -18 14 63 c57 263 134 744 169 1051
l16 139 171 189 c102 113 175 186 182 182 6 -4 56 -39 111 -79z m-30847 -501
c6 -18 10 -33 8 -33 -10 0 -46 63 -40 71 8 14 19 2 32 -38z m31939 -47 c130
-40 185 -55 309 -81 65 -14 130 -28 142 -30 29 -7 50 17 -327 -379 -581 -611
-1305 -1273 -1991 -1822 -295 -236 -355 -280 -346 -259 55 143 181 524 261
785 l25 85 133 110 c468 390 1030 915 1458 1362 133 139 246 253 250 253 4 0
43 -11 86 -24z m1262 -196 c102 -8 480 -65 488 -73 2 -3 -212 -260 -334 -401
-1140 -1309 -2466 -2433 -3944 -3342 -202 -124 -480 -286 -485 -282 -1 2 22
48 53 103 102 185 284 544 379 747 l94 203 82 59 c1146 827 2262 1827 3202
2871 l126 141 107 -8 c60 -4 164 -12 232 -18z m-33239 -432 l291 -297 24 -123
c39 -208 118 -747 110 -756 -5 -5 -440 412 -767 737 l-337 334 133 141 c74 77
158 169 188 203 29 35 56 62 60 60 4 -1 138 -136 298 -299z m-571 -821 c346
-343 847 -821 1019 -973 l33 -29 10 -225 c5 -124 8 -322 7 -442 l-3 -216 -165
140 c-478 407 -1056 959 -1629 1558 l-212 221 118 86 c128 93 222 167 321 250
35 29 66 53 69 53 3 0 198 -190 432 -423z m-1139 -404 c242 -259 942 -959
1190 -1189 354 -328 636 -575 889 -780 l110 -89 -5 -55 c-2 -30 -11 -140 -19
-245 -21 -255 -97 -890 -108 -902 -1 -1 -90 60 -197 135 -1000 703 -2021 1538
-2889 2362 -399 379 -378 357 -356 365 359 131 746 316 1085 517 63 37 117 68
120 68 3 0 84 -84 180 -187z m6146 -2755 c16 -57 111 -336 130 -382 11 -28 -4
-21 -199 95 -154 92 -167 102 -155 119 31 43 194 229 200 230 4 0 15 -28 24
-62z m21061 -130 c44 -57 105 -137 136 -178 l56 -75 -32 -16 c-68 -36 -550
-239 -554 -235 -3 2 11 91 30 198 20 106 39 217 43 246 l7 53 111 53 c61 30
114 55 117 55 4 1 42 -45 86 -101z m-21442 -499 c200 -124 369 -221 594 -342
l214 -115 89 -187 c48 -103 87 -189 86 -190 -11 -9 -1337 637 -1408 685 -12 8
9 33 115 134 l130 124 30 -17 c17 -10 84 -52 150 -92z m21922 -196 c44 -76 92
-161 106 -189 l26 -52 -137 -57 c-396 -166 -1072 -435 -1092 -435 -5 0 2 39
16 88 13 48 43 160 65 248 l41 162 71 27 c79 31 660 278 747 318 30 14 60 26
65 26 6 1 47 -61 92 -136z m-22646 -329 c481 -258 1147 -582 1788 -869 l273
-123 200 -378 c340 -647 500 -955 497 -959 -2 -2 -114 38 -249 89 -1113 422
-2211 931 -3290 1524 -135 74 -246 136 -248 137 -2 1 43 31 100 66 173 106
474 312 648 443 91 68 168 125 171 125 3 1 52 -24 110 -55z m22982 -376 c31
-79 68 -212 93 -333 29 -136 42 -382 29 -548 l-7 -98 -69 -34 c-205 -104 -802
-373 -1164 -525 -368 -155 -1075 -432 -1083 -425 -2 2 33 74 76 161 145 290
306 666 437 1024 l71 194 64 25 c498 187 1237 478 1435 564 44 19 85 35 91 36
6 1 19 -18 27 -41z m-5603 -2548 c63 -69 158 -171 212 -228 54 -56 98 -106 98
-111 0 -4 -129 -36 -287 -71 -159 -34 -297 -64 -307 -67 -15 -4 -18 -2 -12 13
4 11 45 148 89 306 45 158 85 287 88 285 3 -1 57 -58 119 -127z"/>
<path d="M32906 28543 c-11 -52 -45 -277 -65 -433 -72 -544 -115 -1055 -181
-2165 -102 -1701 -217 -3114 -365 -4455 -192 -1740 -255 -2903 -215 -3940 65
-1678 443 -3277 1142 -4830 198 -440 639 -1264 658 -1229 4 8 10 43 14 79 69
726 87 1119 106 2380 29 1845 108 3260 280 5010 180 1838 224 2653 190 3565
-73 1943 -472 3719 -1196 5325 -85 189 -318 659 -348 701 -14 20 -14 20 -20
-8z"/>
<path d="M28739 28394 c-11 -27 -88 -215 -171 -419 -271 -669 -350 -833 -745
-1545 -127 -228 -274 -498 -328 -600 -495 -932 -778 -1810 -844 -2623 -24
-291 -9 -744 34 -1002 8 -49 15 -94 15 -100 1 -17 109 173 211 370 54 105 174
352 267 550 93 198 339 699 546 1113 411 823 569 1148 683 1406 265 601 413
1091 479 1581 25 185 26 632 1 800 -27 179 -101 492 -122 513 -2 3 -14 -17
-26 -44z"/>
<path d="M37918 28434 c-11 -19 -68 -233 -88 -331 -41 -208 -53 -359 -47 -638
9 -425 68 -745 227 -1225 163 -495 337 -878 997 -2190 175 -349 377 -759 447
-910 189 -404 354 -736 448 -900 l82 -145 13 75 c38 224 48 357 48 670 0 239
-5 354 -18 475 -95 835 -370 1649 -875 2590 -41 77 -166 304 -277 505 -440
795 -469 856 -776 1614 -160 394 -173 424 -181 410z"/>
<path d="M9245 13323 c-430 -16 -850 -47 -1205 -89 -354 -41 -800 -111 -800
-125 0 -8 287 -126 540 -222 1876 -707 3972 -942 5900 -661 281 41 630 110
835 165 l40 11 -55 25 c-30 13 -149 62 -265 108 -1337 532 -2883 802 -4545
793 -206 -1 -406 -3 -445 -5z"/>
<path d="M56035 13320 c-1452 -68 -2739 -327 -3890 -785 -115 -46 -235 -95
-265 -108 l-55 -25 40 -11 c205 -55 554 -124 835 -165 1928 -281 4024 -46
5900 661 252 95 540 214 540 222 0 15 -506 93 -845 131 -213 23 -588 55 -840
70 -235 15 -1177 21 -1420 10z"/>
</g>
</svg>
